<svg xmlns="http://www.w3.org/2000/svg" xmlns:xlink="http://www.w3.org/1999/xlink" preserveAspectRatio="xMidYMid" width="18" height="18" viewBox="0 0 18 18">
  <defs>
    <style>
      .cls-1 {
        fill: #01afd1;
      }

      .cls-1, .cls-2 {
        fill-rule: evenodd;
      }

      .cls-2 {
        fill: #fff;
      }
    </style>
  </defs>
  <path d="M3.000,-0.000 L15.000,-0.000 C16.657,-0.000 18.000,1.343 18.000,3.000 L18.000,15.000 C18.000,16.657 16.657,18.000 15.000,18.000 L3.000,18.000 C1.343,18.000 -0.000,16.657 -0.000,15.000 L-0.000,3.000 C-0.000,1.343 1.343,-0.000 3.000,-0.000 Z" class="cls-1"/>
  <path d="M8.012,11.523 C8.112,11.358 8.189,11.237 8.260,11.114 C9.336,9.252 10.411,7.390 11.487,5.528 C11.547,5.425 11.601,5.317 11.677,5.227 C11.866,5.002 12.149,4.959 12.390,5.104 C12.626,5.246 12.721,5.523 12.617,5.790 C12.584,5.876 12.537,5.956 12.491,6.036 C11.220,8.242 9.948,10.448 8.676,12.653 C8.447,13.048 8.098,13.118 7.758,12.812 C6.917,12.051 6.084,11.279 5.255,10.504 C4.981,10.249 4.964,9.940 5.176,9.696 C5.393,9.448 5.735,9.437 6.018,9.692 C6.567,10.186 7.107,10.691 7.651,11.192 C7.757,11.290 7.864,11.387 8.012,11.523 Z" class="cls-2"/>
</svg>
