<svg xmlns="http://www.w3.org/2000/svg" xmlns:xlink="http://www.w3.org/1999/xlink" preserveAspectRatio="xMidYMid" width="18" height="18" viewBox="0 0 18 18">
  <defs>
    <style>
      .cls-1 {
        fill: #01afd1;
        fill-rule: evenodd;
      }
    </style>
  </defs>
  <path d="M8.997,0.001 C11.201,0.001 13.405,0.003 15.609,-0.001 C15.983,-0.002 16.349,0.033 16.687,0.202 C17.500,0.608 17.946,1.267 17.990,2.177 C18.011,2.625 17.995,3.074 17.995,3.523 C17.995,7.522 17.995,11.521 17.993,15.520 C17.993,15.731 17.994,15.946 17.954,16.150 C17.745,17.237 16.853,17.992 15.744,17.994 C11.244,18.000 6.743,18.001 2.243,17.993 C0.981,17.991 0.007,17.017 0.005,15.755 C-0.003,11.254 -0.002,6.753 0.004,2.253 C0.006,0.961 0.964,0.010 2.266,0.004 C4.510,-0.006 6.753,0.001 8.997,0.001 ZM9.026,1.122 C6.861,1.122 4.696,1.121 2.532,1.122 C2.399,1.122 2.267,1.117 2.136,1.129 C1.604,1.177 1.180,1.600 1.128,2.133 C1.115,2.264 1.121,2.397 1.121,2.529 C1.121,6.832 1.121,11.136 1.121,15.440 C1.121,15.545 1.118,15.651 1.122,15.756 C1.149,16.346 1.533,16.777 2.115,16.861 C2.245,16.880 2.378,16.876 2.510,16.876 C6.840,16.877 11.169,16.877 15.498,16.877 C15.564,16.877 15.630,16.878 15.696,16.876 C16.403,16.848 16.851,16.401 16.875,15.699 C16.878,15.606 16.876,15.514 16.876,15.421 C16.876,11.131 16.876,6.841 16.876,2.551 C16.876,2.432 16.881,2.312 16.871,2.194 C16.820,1.577 16.374,1.149 15.757,1.124 C15.638,1.119 15.519,1.122 15.400,1.122 C13.276,1.122 11.151,1.122 9.026,1.122 Z" class="cls-1"/>
</svg>
