<svg xmlns="http://www.w3.org/2000/svg" xmlns:xlink="http://www.w3.org/1999/xlink" preserveAspectRatio="xMidYMid" width="11" height="11" viewBox="0 0 11 11">
  <defs>
    <style>
      .cls-1 {
        fill: #fff;
        fill-rule: evenodd;
      }
    </style>
  </defs>
  <path d="M6.333,5.500 L10.828,1.005 C10.940,0.894 11.001,0.746 11.001,0.588 C11.001,0.431 10.940,0.283 10.828,0.172 C10.717,0.060 10.568,-0.001 10.411,-0.001 C10.254,-0.001 10.106,0.060 9.994,0.172 L5.500,4.667 L1.005,0.172 C0.893,0.061 0.745,-0.001 0.588,-0.001 C0.431,-0.001 0.283,0.061 0.172,0.172 C0.061,0.283 -0.000,0.431 -0.001,0.589 C-0.001,0.747 0.061,0.895 0.172,1.006 L4.667,5.500 L0.171,9.995 C-0.059,10.225 -0.058,10.599 0.171,10.829 C0.282,10.940 0.430,11.001 0.587,11.001 C0.745,11.001 0.893,10.940 1.004,10.828 L5.500,6.333 L9.994,10.828 C10.105,10.939 10.253,11.000 10.410,11.000 C10.568,11.000 10.716,10.939 10.826,10.828 C10.938,10.716 11.000,10.568 11.000,10.411 C11.000,10.254 10.938,10.106 10.827,9.994 L6.333,5.500 Z" class="cls-1"/>
</svg>
