<svg xmlns="http://www.w3.org/2000/svg" xmlns:xlink="http://www.w3.org/1999/xlink" preserveAspectRatio="xMidYMid" width="351" height="376" viewBox="0 0 351 376">
  <defs>
    <style>
      .cls-1 {
        fill: #cecfcf;
        fill-rule: evenodd;
      }
    </style>
  </defs>
  <path d="M288.626,375.988 L127.080,375.988 C92.623,375.988 64.691,348.088 64.691,313.672 L64.691,266.684 C32.002,261.326 6.380,235.734 1.016,203.084 C-5.888,161.061 22.619,121.404 64.691,114.508 L64.691,62.328 C64.691,27.912 92.623,0.012 127.080,0.012 L202.945,0.012 C209.430,0.021 215.650,2.589 220.247,7.157 L238.132,24.938 L326.059,112.930 L343.486,130.336 C348.307,135.152 351.015,141.682 351.015,148.491 L351.015,313.672 C351.015,348.088 323.082,375.988 288.626,375.988 ZM77.210,134.242 C77.183,134.242 77.155,134.242 77.127,134.242 C45.955,134.242 20.686,159.482 20.686,190.618 L20.811,190.576 C20.811,221.695 46.055,246.928 77.210,246.951 C81.411,246.973 85.599,246.499 89.689,245.539 C110.883,240.744 127.435,224.211 132.236,203.041 C139.116,172.697 120.068,142.527 89.689,135.654 C85.599,134.693 81.411,134.219 77.210,134.242 ZM220.330,42.594 L220.330,96.934 C220.330,117.584 237.090,134.325 257.764,134.325 L312.208,134.325 L220.330,42.594 ZM326.059,159.251 L257.764,159.251 C223.308,159.251 195.375,131.351 195.375,96.934 L195.375,24.938 L127.080,24.938 C106.406,24.938 89.647,41.678 89.647,62.328 L89.647,114.674 C122.356,120.035 147.993,145.642 153.361,178.313 C160.267,220.359 131.741,260.036 89.647,266.934 L89.647,313.672 C89.647,334.321 106.406,351.062 127.080,351.062 L288.626,351.062 C309.299,351.062 326.059,334.321 326.059,313.672 L326.059,159.251 ZM117.264,190.576 C117.241,196.577 112.376,201.437 106.367,201.460 L88.150,201.460 L88.150,219.657 C88.126,225.659 83.261,230.518 77.252,230.541 C71.243,230.518 66.377,225.659 66.355,219.657 L66.355,201.501 L48.096,201.501 C42.087,201.479 37.221,196.619 37.198,190.618 C37.198,184.599 42.071,179.714 48.096,179.691 L66.314,179.691 L66.314,161.494 C66.336,155.492 71.201,150.633 77.210,150.610 C83.219,150.633 88.085,155.492 88.108,161.494 L88.108,179.691 L106.325,179.691 C112.351,179.691 117.241,184.557 117.264,190.576 Z" class="cls-1"/>
</svg>
