<svg xmlns="http://www.w3.org/2000/svg" xmlns:xlink="http://www.w3.org/1999/xlink" preserveAspectRatio="xMidYMid" width="13" height="15" viewBox="0 0 13 15">
  <defs>
    <style>
      .cls-1 {
        fill: #7e8286;
        stroke: #626262;
        stroke-width: 0.1px;
        fill-rule: evenodd;
      }
    </style>
  </defs>
  <path d="M12.621,2.600 L11.650,2.600 L11.269,13.100 C11.269,14.100 10.436,14.900 9.396,14.900 L3.569,14.900 C2.529,14.900 1.697,14.100 1.697,13.100 L1.315,2.600 L0.379,2.600 C0.205,2.600 0.101,2.467 0.101,2.333 C0.101,2.167 0.240,2.067 0.379,2.067 L3.743,2.067 L3.743,0.967 C3.743,0.500 4.159,0.100 4.644,0.100 L8.598,0.100 C9.084,0.100 9.500,0.500 9.500,0.967 L9.500,2.067 L12.621,2.067 C12.760,2.067 12.864,2.167 12.899,2.333 C12.899,2.500 12.760,2.600 12.621,2.600 ZM8.980,0.967 C8.980,0.767 8.806,0.600 8.598,0.600 L4.644,0.600 C4.436,0.600 4.263,0.767 4.263,0.967 L4.263,2.067 L8.980,2.067 L8.980,0.967 ZM1.870,2.600 L2.251,13.066 C2.251,13.766 2.841,14.366 3.604,14.366 L9.396,14.366 C10.124,14.366 10.749,13.800 10.749,13.066 L11.165,2.600 L1.870,2.600 ZM8.483,11.366 C8.344,11.366 8.240,11.233 8.205,11.133 L8.205,5.833 C8.205,5.667 8.309,5.567 8.483,5.567 C8.656,5.567 8.760,5.700 8.760,5.833 L8.760,11.100 C8.760,11.266 8.621,11.366 8.483,11.366 ZM6.483,11.366 C6.344,11.366 6.240,11.233 6.205,11.133 L6.205,5.833 C6.205,5.667 6.309,5.567 6.483,5.567 C6.656,5.567 6.760,5.700 6.760,5.833 L6.760,11.100 C6.760,11.266 6.621,11.366 6.483,11.366 ZM4.483,11.366 C4.344,11.366 4.240,11.233 4.205,11.133 L4.205,5.833 C4.205,5.667 4.309,5.567 4.483,5.567 C4.656,5.567 4.760,5.700 4.760,5.833 L4.760,11.100 C4.760,11.266 4.621,11.366 4.483,11.366 Z" class="cls-1"/>
</svg>
