<svg xmlns="http://www.w3.org/2000/svg" xmlns:xlink="http://www.w3.org/1999/xlink" preserveAspectRatio="xMidYMid" width="15" height="13" viewBox="0 0 15 13">
  <defs>
    <style>
      .cls-1 {
        fill: #7e8286;
        fill-rule: evenodd;
      }
    </style>
  </defs>
  <path d="M14.840,5.708 C14.624,5.491 14.271,5.491 14.054,5.709 L12.935,6.833 C13.033,4.998 12.365,3.222 11.049,1.900 C8.534,-0.626 4.428,-0.645 1.893,1.900 C-0.622,4.426 -0.641,8.550 1.893,11.095 C3.504,12.713 5.783,13.345 7.964,12.812 C8.259,12.753 8.455,12.437 8.377,12.121 C8.318,11.825 8.003,11.628 7.689,11.707 C5.862,12.161 3.976,11.608 2.659,10.286 C0.577,8.195 0.557,4.781 2.659,2.670 C4.762,0.558 8.141,0.558 10.243,2.670 C11.343,3.775 11.893,5.274 11.795,6.833 L10.675,5.708 C10.459,5.491 10.105,5.491 9.889,5.708 C9.673,5.926 9.673,6.281 9.889,6.498 L11.952,8.569 C12.168,8.787 12.522,8.787 12.738,8.569 L14.821,6.478 C15.056,6.281 15.056,5.925 14.840,5.708 L14.840,5.708 Z" class="cls-1"/>
</svg>
