<svg xmlns="http://www.w3.org/2000/svg" xmlns:xlink="http://www.w3.org/1999/xlink" preserveAspectRatio="xMidYMid" width="17" height="4" viewBox="0 0 17 4">
  <defs>
    <style>
      .cls-1 {
        fill: #6b6b6b;
        filter: url(#color-overlay-1);
        fill-rule: evenodd;
      }
    </style>

    <filter id="color-overlay-1" filterUnits="userSpaceOnUse">
      <feFlood flood-color="#7e8286"/>
      <feComposite operator="in" in2="SourceGraphic"/>
      <feBlend in2="SourceGraphic" result="solidFill"/>
    </filter>
  </defs>
  <path d="M14.924,3.999 C14.923,3.999 14.923,3.999 14.923,3.999 C13.776,4.000 12.847,3.105 12.846,2.000 C12.846,0.896 13.775,0.001 14.922,0.001 C14.922,0.001 14.923,0.001 14.923,0.001 C16.070,0.000 16.999,0.896 17.000,2.000 C17.000,3.104 16.070,3.999 14.924,3.999 ZM8.501,3.999 C8.500,3.999 8.500,3.999 8.500,3.999 C7.353,4.000 6.423,3.105 6.423,2.000 C6.423,0.896 7.352,0.001 8.499,0.001 C8.499,0.001 8.500,0.001 8.500,0.001 C9.647,0.001 10.576,0.896 10.577,2.000 C10.577,3.104 9.647,3.999 8.501,3.999 ZM2.078,3.999 C2.077,3.999 2.077,3.999 2.077,3.999 C0.930,4.000 0.000,3.105 0.000,2.000 C-0.000,0.896 0.929,0.001 2.076,0.001 C2.076,0.001 2.077,0.001 2.077,0.001 C3.224,0.000 4.153,0.896 4.153,2.000 C4.154,3.104 3.224,3.999 2.078,3.999 Z" class="cls-1"/>
</svg>
