<svg xmlns="http://www.w3.org/2000/svg" xmlns:xlink="http://www.w3.org/1999/xlink" preserveAspectRatio="xMidYMid" width="23" height="22" viewBox="0 0 23 22">
  <defs>
    <style>
      .cls-1 {
        fill: #01afd1;
        fill-rule: evenodd;
      }
    </style>
  </defs>
  <path d="M22.218,11.787 L9.200,11.787 C8.843,13.347 7.458,14.515 5.806,14.515 C4.153,14.515 2.768,13.347 2.412,11.787 L0.781,11.787 C0.350,11.787 -0.000,11.434 -0.000,10.999 C-0.000,10.564 0.350,10.211 0.781,10.211 L2.411,10.211 C2.767,8.651 4.152,7.483 5.806,7.483 C7.459,7.483 8.844,8.651 9.200,10.211 L22.218,10.211 C22.649,10.211 22.999,10.564 22.999,10.999 C22.999,11.434 22.649,11.787 22.218,11.787 ZM5.806,9.058 C4.745,9.058 3.881,9.928 3.881,10.998 C3.881,12.069 4.745,12.940 5.806,12.940 C6.867,12.940 7.730,12.069 7.730,10.998 C7.730,9.928 6.867,9.058 5.806,9.058 ZM22.218,4.304 L14.893,4.304 C14.537,5.864 13.152,7.033 11.499,7.033 C9.846,7.033 8.461,5.864 8.105,4.304 L0.781,4.304 C0.350,4.304 -0.000,3.951 -0.000,3.516 C-0.000,3.081 0.350,2.728 0.781,2.728 L8.105,2.728 C8.461,1.168 9.846,-0.000 11.499,-0.000 C13.152,-0.000 14.537,1.168 14.893,2.728 L22.218,2.728 C22.649,2.728 22.999,3.081 22.999,3.516 C22.999,3.951 22.649,4.304 22.218,4.304 ZM11.499,1.575 C10.438,1.575 9.575,2.445 9.575,3.515 C9.575,4.586 10.438,5.457 11.499,5.457 C12.527,5.457 13.362,4.638 13.413,3.613 C13.410,3.581 13.404,3.549 13.404,3.516 C13.404,3.482 13.409,3.451 13.414,3.419 C13.362,2.394 12.527,1.575 11.499,1.575 ZM0.781,17.694 L13.798,17.694 C14.154,16.134 15.540,14.965 17.193,14.965 C18.846,14.965 20.232,16.134 20.587,17.694 L22.218,17.694 C22.649,17.694 22.999,18.047 22.999,18.482 C22.999,18.917 22.649,19.269 22.218,19.269 L20.587,19.269 C20.230,20.830 18.845,21.998 17.193,21.998 C15.540,21.998 14.155,20.830 13.799,19.269 L0.781,19.269 C0.350,19.269 -0.000,18.917 -0.000,18.482 C-0.000,18.047 0.350,17.694 0.781,17.694 ZM17.193,20.423 C18.254,20.423 19.117,19.551 19.117,18.481 C19.117,17.411 18.254,16.541 17.193,16.541 C16.132,16.541 15.269,17.411 15.269,18.481 C15.269,19.551 16.132,20.423 17.193,20.423 Z" class="cls-1"/>
</svg>
