<svg xmlns="http://www.w3.org/2000/svg" width="23" height="21" viewBox="0 0 23 21">
  <defs>
    <style>
      .cls-1 {
        fill: #fff;
        fill-rule: evenodd;
      }
    </style>
  </defs>
  <path id="refresh" class="cls-1" d="M21.722,5.592a0.833,0.833,0,0,0-1.143.326L19.372,8.053A9.7,9.7,0,0,0,14.78,1.5,9.682,9.682,0,0,0,1.462,5.295,10.1,10.1,0,0,0,4.909,18.959,9.36,9.36,0,0,0,14.382,19a0.89,0.89,0,0,0,.341-1.2,0.819,0.819,0,0,0-1.155-.331,7.736,7.736,0,0,1-7.849-.028A8.365,8.365,0,0,1,2.865,6.121,7.991,7.991,0,0,1,13.9,2.981a8.076,8.076,0,0,1,3.818,5.544L15.664,7.317a0.833,0.833,0,0,0-1.143.325,0.869,0.869,0,0,0,.3,1.173l3.777,2.224a0.833,0.833,0,0,0,1.143-.325l2.245-3.97a0.809,0.809,0,0,0-.26-1.152h0Z"/>
</svg>
