<svg id="402acc70-c247-4d11-b4e0-39ff992c6e0c" data-name="Layer 1" xmlns="http://www.w3.org/2000/svg" viewBox="0 0 12.93 14.9"><title>trashbin</title><path d="M4.85,5.8v5.3a.37.37,0,0,1-.35.35c-.12,0-.23-.11-.34-.22h0V5.8a.31.31,0,0,1,.35-.35A.31.31,0,0,1,4.85,5.8Z" transform="translate(-0.05 -0.05)" fill="#01afd1"/><path d="M6.85,5.8v5.3a.37.37,0,0,1-.35.35c-.12,0-.23-.11-.34-.22h0V5.8a.31.31,0,0,1,.35-.35A.31.31,0,0,1,6.85,5.8Z" transform="translate(-0.05 -0.05)" fill="#01afd1"/><path d="M8.85,5.8v5.3a.37.37,0,0,1-.35.35.5.5,0,0,1-.33-.22h0V5.8a.35.35,0,0,1,.7,0Z" transform="translate(-0.05 -0.05)" fill="#01afd1"/><path d="M1.9,2.6l.4,10.5a1.35,1.35,0,0,0,1.4,1.3l5.58,0a1.42,1.42,0,0,0,1.4-1.3L11.06,2.6Zm8.73,10.55A1.36,1.36,0,0,1,9.28,14.4L3.7,14.35A1.31,1.31,0,0,1,2.35,13.1L2,2.65H11Z" transform="translate(-0.05 -0.05)" fill="#01afd1"/><path d="M12.7,2h-3V1a1,1,0,0,0-1-1h-4a1,1,0,0,0-1,1V2H.4A.31.31,0,0,0,0,2.3a.31.31,0,0,0,.35.35h.85l.4,10.45A1.93,1.93,0,0,0,3.6,15H9.3a1.86,1.86,0,0,0,2-1.85l.4-10.45h1c.22,0,.28-.26.28-.39A.3.3,0,0,0,12.7,2ZM4.35,1c0-.17.08-.35.25-.35H8.67A.38.38,0,0,1,9,1v.93H4.35Zm6.28,12.15A1.36,1.36,0,0,1,9.28,14.4L3.7,14.35A1.31,1.31,0,0,1,2.35,13.1L2,2.65H11Z" transform="translate(-0.05 -0.05)" fill="#01afd1"/></svg>