<?xml version="1.0" encoding="utf-8"?>
<!-- Generator: Adobe Illustrator 20.0.0, SVG Export Plug-In . SVG Version: 6.00 Build 0)  -->
<svg version="1.1" id="search_projects_2" xmlns="http://www.w3.org/2000/svg" xmlns:xlink="http://www.w3.org/1999/xlink" x="0px"
	 y="0px" viewBox="0 0 31 23" style="enable-background:new 0 0 31 23;" xml:space="preserve">
<style type="text/css">
	.st0{clip-path:url(#SVGID_2_);fill:#01AFD1;}
	.st1{fill:#01AFD1;}
</style>
<g>
	<g>
		<defs>
			<path id="SVGID_1_" d="M13,21.7L1.8,14.9l1.8-1.1l9.1,5.6c0.2,0.1,0.5,0.1,0.7,0l2.9-1.8c-0.3-0.3-0.5-0.6-0.8-0.9L13,18.2
				L1.8,11.3l1.5-0.9l9.4,5.7c0.2,0.1,0.5,0.1,0.7,0l1.4-0.8c-0.2-0.4-0.3-0.8-0.4-1.2L13,14.9L1.8,8.1L13,1.3l5.7,3.5
				c0.5-0.2,1-0.4,1.5-0.5l-6.9-4.2c-0.2-0.1-0.5-0.1-0.7,0L0.3,7.6C0,7.8-0.1,8.1,0.1,8.4c0,0,0,0,0,0c0.1,0.1,0.1,0.1,0.2,0.2
				l1.8,1.1l-1.8,1.1C0,11-0.1,11.3,0.1,11.6c0,0,0,0,0,0c0,0.1,0.1,0.1,0.2,0.2l2.1,1.3l-2.1,1.3c-0.3,0.2-0.4,0.5-0.2,0.8
				c0,0,0,0,0,0c0,0.1,0.1,0.1,0.2,0.2l12.4,7.5c0.2,0.1,0.5,0.1,0.7,0l5.7-3.5c-0.4-0.2-0.9-0.4-1.3-0.6L13,21.7z"/>
		</defs>
		<use xlink:href="#SVGID_1_"  style="overflow:visible;fill:#01AFD1;"/>
		<clipPath id="SVGID_2_">
			<use xlink:href="#SVGID_1_"  style="overflow:visible;"/>
		</clipPath>
		<path class="st0" d="M24.1,4.3c-1.3-0.3-2.7-0.3-4,0l3.1,1.9c0.1,0,0.2,0,0.3,0.1l-0.1,0.1l2.3,1.4c0.1,0,0.1,0.1,0.2,0.2
			c0,0,0,0,0,0c0.2,0.3,0.1,0.6-0.2,0.8L25,9c-0.3-0.3-0.6-0.6-1-0.8l0.2-0.1l-1.9-1.2L20.5,8c-0.6,0.2-1.1,0.5-1.6,0.9L16,10.6
			c0.6-2.4,2.6-4.1,4.8-4.5l-2.2-1.3c-2.1,1-3.8,2.8-4.4,5.2c0,0,0,0.1,0,0.1c-0.4,1.4-0.3,2.8,0,4.1l3.2-1.9c0,0.4,0.1,0.9,0.2,1.3
			l-2.9,1.8c0.2,0.5,0.5,0.9,0.8,1.4l2.9-1.7c0.2,0.3,0.5,0.6,0.8,0.9l-2.9,1.8c0.4,0.5,1,0.9,1.5,1.2l3.5-2.1
			c1.9,0.3,3.7-0.6,4.6-2.2c0,0,0.1,0,0.1,0.1c0,0,0,0,0,0c0.2,0.3,0.1,0.6-0.2,0.8L19,19.4c0.3,0.1,0.6,0.2,0.9,0.3
			c4.3,1.1,8.7-1.4,9.8-5.7c0,0,0-0.1,0-0.1C30.9,9.7,28.3,5.4,24.1,4.3z"/>
	</g>
</g>
<path class="st1" d="M29.8,20.9l-4-4.1c-1.1,0.9-2.4,1.4-3.8,1.4c-3.4,0.1-6.1-2.6-6.2-6s2.6-6.1,6-6.2c3.4-0.1,6.1,2.6,6.2,6
	c0,0,0,0.1,0,0.1c0,1.3-0.4,2.5-1.1,3.6l4.1,4.1c0.2,0.2,0.2,0.5,0,0.6l-0.5,0.5C30.2,21.1,30,21.1,29.8,20.9
	C29.8,20.9,29.8,20.9,29.8,20.9z M26.4,12.1c0-2.4-2.1-4.4-4.5-4.3s-4.4,2.1-4.3,4.5c0,2.4,2,4.3,4.4,4.3
	C24.4,16.6,26.4,14.6,26.4,12.1C26.4,12.1,26.4,12.1,26.4,12.1L26.4,12.1z"/>
</svg>
